<svg xmlns="http://www.w3.org/2000/svg" viewBox="46 383 220 236"><path d="M128.783 393.204C154.679 392.21 173.906 391.187 197.02 403.948L197.091 415.011C182.429 421.201 170.539 428.681 156.775 436.494L102.438 467.391C115.358 475.707 133.494 484.919 147.349 492.768C159.532 499.67 178.095 510.938 190.372 516.754C196.465 519.464 202.77 521.844 208.986 524.272C184.846 547.182 160.822 544.439 130.643 544.45L80.6803 544.473L80.794 474.043C80.8155 464.528 80.293 442.541 81.9752 434.054C83.6362 425.45 87.4491 417.407 93.0582 410.675C102.525 399.493 114.42 394.451 128.783 393.204Z"/><path d="M204.327 409.39C205.622 410.206 206.183 410.625 207.332 411.639C222.388 424.934 231.499 443.7 232.634 463.753C233.827 484.963 228.265 502.951 214.125 518.858L204.842 515.027C199.72 512.998 194.496 511.067 189.616 508.524C212.812 482.987 212.347 451.543 188.441 426.708C193.419 424.705 198.958 422.766 204.029 420.89L204.327 409.39Z"/><path d="M167.739 572.839C177.08 570.55 186.498 576.305 188.724 585.661C190.95 595.017 185.133 604.397 175.763 606.561C166.48 608.704 157.207 602.954 155.001 593.685C152.796 584.416 158.485 575.105 167.739 572.839Z"/><path fill="white" d="M168.926 579.038C172.794 577.961 176.942 579.073 179.754 581.94C182.565 584.807 183.594 588.976 182.441 592.823C181.287 596.669 178.133 599.583 174.208 600.43C168.381 601.687 162.611 598.085 161.183 592.298C159.754 586.512 163.184 580.638 168.926 579.038Z"/><path d="M60.6607 561.248L87.9978 561.165L88.0774 567.277L63.6992 567.378L63.6282 580.412C68.2118 580.396 80.118 580.106 84.0618 580.689C84.8171 582.193 84.5915 584.552 84.5889 586.324C80.6375 586.373 65.9426 585.435 63.7947 587.334L63.674 589.375C63.7227 592.849 63.6719 596.435 63.6676 599.92C71.8784 599.902 80.0891 599.833 88.2991 599.713C88.3205 601.775 88.2227 604.018 88.1755 606.096L56.681 606.065C56.7755 593.377 55.9232 573.614 56.767 561.931C58.3207 560.986 58.5384 561.32 60.6607 561.248Z"/><path d="M126.405 559.733L132.501 559.694L132.499 587.424L147.209 572.712C149.642 572.779 152.633 572.673 155.109 572.645C150.043 577.761 145.009 582.907 140.005 588.084C142.103 590.902 145.528 594.607 147.904 597.334C150.237 600.127 153.162 603.239 155.619 605.992L147.669 606.005C143.721 601.803 139.529 596.823 135.703 592.448C134.602 593.285 133.524 594.399 132.519 595.368L132.462 606.285L126.42 606.318C126.31 590.79 126.305 575.261 126.405 559.733Z"/><path d="M103.877 572.089C112.644 571.532 118.571 573.058 119.878 582.513C116.868 582.597 114.145 583.079 112.356 579.968C109.932 575.754 100.916 576.591 100.315 581.848C101.223 584.816 106.208 586.345 109.231 586.915C117.366 588.447 125.258 593.737 119.174 602.594C116.934 605.854 111.165 606.545 107.252 606.99C101.558 606.353 91.9118 604.375 93.4814 596.483C99.2592 589.483 100.731 604.156 107.421 601.725C110.63 600.559 115.261 600.869 114.02 595.565C109.802 590.705 95.7565 592.439 93.7985 584.106C92.0605 576.709 97.7877 573.487 103.877 572.089Z"/><path d="M218.066 572.887L224.55 572.704L224.506 583.169L224.501 606.13C222.637 606.177 220.082 606.517 218.578 605.633C217.51 604.201 217.823 602.041 217.834 600.146C217.218 601.062 215.281 603.791 214.469 604.222C190.217 617.099 194.119 582.197 194.821 572.753L201.167 572.74C201.29 577.15 199.937 595.317 203.264 598.511C209.384 604.387 218.413 598.96 218.156 590.179C218.019 585.517 218.099 578.294 218.066 572.887Z"/><path d="M243.596 572.962C247.075 572.879 250.781 572.932 254.28 572.919L254.299 578.573C249.716 578.532 245.879 578.483 241.288 578.844C240.863 584.467 240.972 591.445 241.233 597.146C241.314 598.916 242.868 600.221 244.186 601.25C247.747 601.701 248.56 597.339 249.539 594.459L249.789 593.707C251.999 593.256 252.751 593.456 255.05 593.684C254.844 597.565 254.97 599.783 252.57 602.961C249.593 607.206 241.864 608.656 238.244 604.506C233.764 599.371 235.066 587.5 235.127 580.883C239.759 578.24 240.497 577.118 243.596 572.962Z"/><path d="M237.306 563.854L243.55 563.785C242.525 571.565 241.527 574.446 234.476 578.726C232.867 579.284 230.651 579.646 228.942 579.984C228.754 567.875 234.414 577.455 237.306 563.854Z"/></svg>