<svg xmlns="http://www.w3.org/2000/svg" viewBox="70 383 173 172"><path d="M128.783 393.204C154.679 392.21 173.906 391.187 197.02 403.948L197.091 415.011C182.429 421.201 170.539 428.681 156.775 436.494L102.438 467.391C115.358 475.707 133.494 484.919 147.349 492.768C159.532 499.67 178.095 510.938 190.372 516.754C196.465 519.464 202.77 521.844 208.986 524.272C184.846 547.182 160.822 544.439 130.643 544.45L80.6803 544.473L80.794 474.043C80.8155 464.528 80.293 442.541 81.9752 434.054C83.6362 425.45 87.4491 417.407 93.0582 410.675C102.525 399.493 114.42 394.451 128.783 393.204Z"/><path d="M204.327 409.39C205.622 410.206 206.183 410.625 207.332 411.639C222.388 424.934 231.499 443.7 232.634 463.753C233.827 484.963 228.265 502.951 214.125 518.858L204.842 515.027C199.72 512.998 194.496 511.067 189.616 508.524C212.812 482.987 212.347 451.543 188.441 426.708C193.419 424.705 198.958 422.766 204.029 420.89L204.327 409.39Z"/></svg>